<?xml version="1.0" encoding="UTF-8"?>
<svg version="1.1" xmlns="http://www.w3.org/2000/svg" width="216" height="60">
<path d="M0 0 C71.28 0 142.56 0 216 0 C216 19.8 216 39.6 216 60 C144.72 60 73.44 60 0 60 C0 40.2 0 20.4 0 0 Z " fill="#FDFCFC" transform="translate(0,0)"/>
<path d="M0 0 C9.57469512 -0.75457317 9.57469512 -0.75457317 14.1875 1.6875 C18.79956909 10.11645386 15.76099039 23.30188714 15.0625 32.625 C14.97548828 33.87667969 14.88847656 35.12835938 14.79882812 36.41796875 C14.12936724 45.61189829 14.12936724 45.61189829 13 49 C10.08102434 50.45948783 7.33906932 50.33539535 4.0859375 50.53515625 C3.39746735 50.57813339 2.70899719 50.62111053 1.99966431 50.66539001 C0.53880263 50.75564502 -0.92219214 50.84376699 -2.38330078 50.92993164 C-4.595726 51.06076881 -6.80761445 51.19874994 -9.01953125 51.33789062 C-29.48055195 52.58897345 -29.48055195 52.58897345 -34 49 C-36.49118953 45.2632157 -36.2065226 43.25548181 -36.125 38.8125 C-36.10695313 37.54019531 -36.08890625 36.26789062 -36.0703125 34.95703125 C-36.04710937 33.98121094 -36.02390625 33.00539062 -36 32 C-33 33 -33 33 -32 35 C-28.04 35 -24.08 35 -20 35 C-19.29388435 32.525374 -19.29388435 32.525374 -19 30 C-20.051875 30.7425 -20.051875 30.7425 -21.125 31.5 C-24.37119719 33.1936681 -26.39340156 33.25162315 -30 33 C-30.66 31.68 -31.32 30.36 -32 29 C-32.66 29 -33.32 29 -34 29 C-34.86997818 23.49013821 -32.77806151 20.0241361 -29.90234375 15.53125 C-25.08343102 9.1192265 -18.69468555 3.5811287 -11 1 C-5.96437055 0.33491686 -5.96437055 0.33491686 -3.1875 2.25 C-1.88741278 4.16591802 -1.39143023 5.72970466 -1 8 C0.32 8 1.64 8 3 8 C3 7.34 3 6.68 3 6 C2.01 5.67 1.02 5.34 0 5 C0 3.35 0 1.7 0 0 Z " fill="#980E06" transform="translate(43,3)"/>
<path d="M0 0 C2.25738505 1.55681728 2.86684202 2.57631553 3.6875 5.1875 C3.8421875 6.0846875 3.8421875 6.0846875 4 7 C4.721875 6.731875 5.44375 6.46375 6.1875 6.1875 C9 6 9 6 11.8125 8.4375 C12.534375 9.283125 13.25625 10.12875 14 11 C12.40089132 12.00806851 10.79551738 13.00620385 9.1875 14 C8.29417969 14.556875 7.40085938 15.11375 6.48046875 15.6875 C4 17 4 17 1 17 C1.33 17.9075 1.66 18.815 2 19.75 C3 23 3 23 3 27 C2.22914062 27.06058594 1.45828125 27.12117188 0.6640625 27.18359375 C-0.84027344 27.30927734 -0.84027344 27.30927734 -2.375 27.4375 C-3.87160156 27.55931641 -3.87160156 27.55931641 -5.3984375 27.68359375 C-7.97927613 27.84965626 -7.97927613 27.84965626 -10 29 C-9.67 29.66 -9.34 30.32 -9 31 C-10.98 31.33 -12.96 31.66 -15 32 C-14.34 30.68 -13.68 29.36 -13 28 C-14.299375 28.99 -14.299375 28.99 -15.625 30 C-19.21423463 32.12695385 -20.92694798 32.38790972 -25 32 C-25.66 30.68 -26.32 29.36 -27 28 C-27.66 28 -28.32 28 -29 28 C-29.86997818 22.49013821 -27.77806151 19.0241361 -24.90234375 14.53125 C-19.30763178 7.08695152 -10.06423343 -1.63836358 0 0 Z M-9 29 C-7 30 -7 30 -7 30 Z " fill="#A91503" transform="translate(38,4)"/>
<path d="M0 0 C9.57469512 -0.75457317 9.57469512 -0.75457317 14.1875 1.6875 C18.78751484 10.09442367 15.78802237 23.3129992 15.125 32.625 C15.00705078 34.50251953 15.00705078 34.50251953 14.88671875 36.41796875 C14.80292969 37.61292969 14.71914063 38.80789062 14.6328125 40.0390625 C14.52283936 41.65095459 14.52283936 41.65095459 14.41064453 43.29541016 C14 46 14 46 12 49 C11.51789062 48.50628906 11.03578125 48.01257812 10.5390625 47.50390625 C9.90742187 46.86324219 9.27578125 46.22257812 8.625 45.5625 C7.68527344 44.60537109 7.68527344 44.60537109 6.7265625 43.62890625 C5.08276939 41.92117824 5.08276939 41.92117824 3 41 C3 40.34 3 39.68 3 39 C1.68 38.67 0.36 38.34 -1 38 C-0.67 37.34 -0.34 36.68 0 36 C-0.23368911 34.04636058 -0.23368911 34.04636058 -0.77734375 31.8671875 C-0.96103516 31.06152344 -1.14472656 30.25585938 -1.33398438 29.42578125 C-1.53314453 28.58402344 -1.73230469 27.74226563 -1.9375 26.875 C-2.13279297 26.02550781 -2.32808594 25.17601563 -2.52929688 24.30078125 C-3.01339259 22.19909742 -3.50590903 20.09935649 -4 18 C-3.30132812 17.66226562 -2.60265625 17.32453125 -1.8828125 16.9765625 C-0.97273438 16.53054687 -0.06265625 16.08453125 0.875 15.625 C1.77992187 15.18414062 2.68484375 14.74328125 3.6171875 14.2890625 C6.09534472 13.09497301 6.09534472 13.09497301 8 11 C7.13375 10.43732422 7.13375 10.43732422 6.25 9.86328125 C5.5075 9.35152344 4.765 8.83976563 4 8.3125 C3.2575 7.81363281 2.515 7.31476562 1.75 6.80078125 C0 5 0 5 -0.25 2.29296875 C-0.1675 1.53628906 -0.085 0.77960937 0 0 Z " fill="#910D05" transform="translate(43,3)"/>
<path d="M0 0 C1.32 0 2.64 0 4 0 C4.33 0.66 4.66 1.32 5 2 C5.66 1.34 6.32 0.68 7 0 C15.20588235 -0.52941176 15.20588235 -0.52941176 19 2 C19.99 1.34 20.98 0.68 22 0 C28.24023155 -0.55716353 28.24023155 -0.55716353 30.875 1.375 C32.78670636 4.13635363 33.12100836 5.81681266 33.09765625 9.1328125 C33.09443359 9.93847656 33.09121094 10.74414062 33.08789062 11.57421875 C33.07532227 12.83685547 33.07532227 12.83685547 33.0625 14.125 C33.05798828 14.97449219 33.05347656 15.82398438 33.04882812 16.69921875 C33.03702874 18.79950909 33.01909306 20.8997633 33 23 C31.68 23 30.36 23 29 23 C28.93941406 21.71222656 28.87882812 20.42445312 28.81640625 19.09765625 C28.73201753 17.41925841 28.6473687 15.74087364 28.5625 14.0625 C28.52318359 13.21236328 28.48386719 12.36222656 28.44335938 11.48632812 C28.40146484 10.67744141 28.35957031 9.86855469 28.31640625 9.03515625 C28.27974854 8.2862915 28.24309082 7.53742676 28.20532227 6.76586914 C28.18228937 4.97538674 28.18228937 4.97538674 27 4 C25.00041636 3.95919217 22.99954746 3.95745644 21 4 C18.73150334 7.65172633 18.6104049 11.0127118 18.375 15.25 C18.30023438 16.51328125 18.22546875 17.7765625 18.1484375 19.078125 C18.09945312 20.04234375 18.05046875 21.0065625 18 22 C17.01 22 16.02 22 15 22 C14.93941406 20.86820313 14.87882812 19.73640625 14.81640625 18.5703125 C14.73200083 17.08852855 14.64735283 15.6067584 14.5625 14.125 C14.52318359 13.37863281 14.48386719 12.63226563 14.44335938 11.86328125 C14.28426376 7.80013136 14.28426376 7.80013136 13 4 C10.08365871 3.7497843 10.08365871 3.7497843 7 4 C4.51955685 7.72066472 4.55618827 10.86540474 4.375 15.1875 C4.33632812 15.93708984 4.29765625 16.68667969 4.2578125 17.45898438 C4.16371784 19.30559199 4.08077681 21.1527619 4 23 C2.68 23 1.36 23 0 23 C0 15.41 0 7.82 0 0 Z " fill="#454545" transform="translate(99,22)"/>
<path d="M0 0 C1.2065625 0.495 1.2065625 0.495 2.4375 1 C2.4375 2.65 2.4375 4.3 2.4375 6 C1.40625 5.505 0.375 5.01 -0.6875 4.5 C-4.13942978 3.03849747 -6.77932012 2.50654175 -10.5625 3 C-14.36880817 4.73014008 -15.99915496 6.16772942 -17.5625 10 C-18.27909239 14.58285828 -17.88767922 18.20825929 -16.125 22.5 C-12.95687331 25.59085531 -10.97794681 25.80741581 -6.68359375 26.08984375 C-4.37160097 26.08958745 -4.37160097 26.08958745 -1.5625 25 C-1.2325 22.36 -0.9025 19.72 -0.5625 17 C-2.8725 17 -5.1825 17 -7.5625 17 C-7.5625 16.01 -7.5625 15.02 -7.5625 14 C-3.9325 14 -0.3025 14 3.4375 14 C3.4375 18.29 3.4375 22.58 3.4375 27 C-1.83862248 30.33228788 -6.49503425 30.844837 -12.5625 30 C-16.78866457 28.67538125 -19.13926887 26.68263085 -21.5 22.875 C-23.51106274 17.03034891 -23.61991257 11.19616457 -20.9375 5.625 C-14.57637998 -1.40571161 -8.89157672 -2.49588118 0 0 Z " fill="#464646" transform="translate(88.5625,15)"/>
<path d="M0 0 C0 0.99 0 1.98 0 3 C-0.83144531 2.89300781 -1.66289062 2.78601563 -2.51953125 2.67578125 C-4.14955078 2.49595703 -4.14955078 2.49595703 -5.8125 2.3125 C-7.43091797 2.12107422 -7.43091797 2.12107422 -9.08203125 1.92578125 C-11.97268311 1.75008185 -11.97268311 1.75008185 -13.94921875 3.23046875 C-15.1661334 4.95223065 -15.1661334 4.95223065 -15.0546875 7.05859375 C-14.10887305 9.27003279 -14.10887305 9.27003279 -11.3828125 10.16015625 C-10.30773437 10.45792969 -9.23265625 10.75570313 -8.125 11.0625 C-1.07695748 13.04104688 -1.07695748 13.04104688 1 16 C1.64739884 22.79768786 1.64739884 22.79768786 -0.3125 26.4375 C-3.84392409 29.70733712 -8.02101813 29.2010525 -12.546875 29.16796875 C-15.34648535 28.97627568 -17.52369553 28.32069572 -20 27 C-20 25.68 -20 24.36 -20 23 C-18.2365625 23.5259375 -18.2365625 23.5259375 -16.4375 24.0625 C-12.37014183 25.09019548 -9.12677801 24.92641955 -5 24 C-3.70366379 22.93354885 -3.70366379 22.93354885 -3.9375 20.4375 C-3.958125 19.633125 -3.97875 18.82875 -4 18 C-4.58007812 17.82984375 -5.16015625 17.6596875 -5.7578125 17.484375 C-10.69186152 15.95367992 -15.0479528 14.4580413 -19 11 C-20.30666532 7.38745469 -20.33646758 5.77918809 -18.8125 2.25 C-14.01326295 -3.70767358 -6.44588668 -3.22294334 0 0 Z " fill="#484848" transform="translate(184,16)"/>
<path d="M0 0 C0.66 0.33 1.32 0.66 2 1 C2 1.99 2 2.98 2 4 C1.16855469 3.89300781 0.33710938 3.78601563 -0.51953125 3.67578125 C-2.14955078 3.49595703 -2.14955078 3.49595703 -3.8125 3.3125 C-5.43091797 3.12107422 -5.43091797 3.12107422 -7.08203125 2.92578125 C-9.97268311 2.75008185 -9.97268311 2.75008185 -11.94921875 4.23046875 C-13.1661334 5.95223065 -13.1661334 5.95223065 -13.0546875 8.05859375 C-12.10887305 10.27003279 -12.10887305 10.27003279 -9.3828125 11.16015625 C-8.30773437 11.45792969 -7.23265625 11.75570313 -6.125 12.0625 C0.91417669 14.03855804 0.91417669 14.03855804 3 17 C3.77669903 23.99029126 3.77669903 23.99029126 1.125 27.4375 C-3.36704538 30.74047455 -7.57374701 30.36629337 -13 30 C-16.125 29 -16.125 29 -18 28 C-17.67 26.68 -17.34 25.36 -17 24 C-16.0409375 24.5259375 -16.0409375 24.5259375 -15.0625 25.0625 C-10.90054759 26.33656707 -7.23307697 25.86585665 -3 25 C-1.70366379 23.93354885 -1.70366379 23.93354885 -1.9375 21.4375 C-1.958125 20.633125 -1.97875 19.82875 -2 19 C-2.58007812 18.82984375 -3.16015625 18.6596875 -3.7578125 18.484375 C-8.68342956 16.95629578 -13.10229805 15.50793175 -17 12 C-18.125 8.5625 -18.125 8.5625 -18 5 C-13.84112002 -1.83244567 -7.18982038 -2.39660679 0 0 Z " fill="#474747" transform="translate(156,15)"/>
<path d="M0 0 C3 1 3 1 4 3 C7.96 3 11.92 3 16 3 C15.01 6.63 14.02 10.26 13 14 C12.67 13.34 12.34 12.68 12 12 C10.68 12 9.36 12 8 12 C8.33 13.98 8.66 15.96 9 18 C10.98 18.33 12.96 18.66 15 19 C15 19.33 15 19.66 15 20 C6.33274336 20.44070796 6.33274336 20.44070796 2 17 C-0.49118953 13.2632157 -0.2065226 11.25548181 -0.125 6.8125 C-0.10695313 5.54019531 -0.08890625 4.26789062 -0.0703125 2.95703125 C-0.04710937 1.98121094 -0.02390625 1.00539062 0 0 Z " fill="#A31007" transform="translate(7,35)"/>
<path d="M0 0 C1.32 0 2.64 0 4 0 C4 8.58 4 17.16 4 26 C8.62 26 13.24 26 18 26 C18 26.99 18 27.98 18 29 C12.06 29 6.12 29 0 29 C0 19.43 0 9.86 0 0 Z " fill="#424242" transform="translate(192,15)"/>
<path d="M0 0 C9.57469512 -0.75457317 9.57469512 -0.75457317 14.1875 1.6875 C17.04427791 6.9085079 16.38367157 12.17671814 16 18 C15.67 17.01 15.34 16.02 15 15 C14.29875 14.731875 13.5975 14.46375 12.875 14.1875 C9.49404596 12.79101898 7.33771142 10.87123206 4.6484375 8.4375 C2.85040066 6.80725313 2.85040066 6.80725313 0 5 C-0.1875 2.375 -0.1875 2.375 0 0 Z " fill="#9C1007" transform="translate(43,3)"/>
<path d="M0 0 C1.41634833 2.83269666 1.3463005 5.47466438 1.5625 8.625 C1.68818359 10.40777344 1.68818359 10.40777344 1.81640625 12.2265625 C1.87699219 13.14179688 1.93757813 14.05703125 2 15 C1.22914062 15.06058594 0.45828125 15.12117188 -0.3359375 15.18359375 C-1.33882812 15.26738281 -2.34171875 15.35117187 -3.375 15.4375 C-4.87160156 15.55931641 -4.87160156 15.55931641 -6.3984375 15.68359375 C-8.97927613 15.84965626 -8.97927613 15.84965626 -11 17 C-10.67 17.66 -10.34 18.32 -10 19 C-11.98 19.33 -13.96 19.66 -16 20 C-12.52295543 15.09647561 -8.8716471 10.78105782 -4.546875 6.609375 C-2.62328097 4.60806 -1.26833443 2.46206096 0 0 Z M-10 17 C-8 18 -8 18 -8 18 Z " fill="#C13424" transform="translate(39,16)"/>
<path d="M0 0 C2.01953125 1.53125 2.01953125 1.53125 3.8125 3.5 C4.41707031 4.1496875 5.02164063 4.799375 5.64453125 5.46875 C6.31548828 6.22671875 6.31548828 6.22671875 7 7 C6.67 7.66 6.34 8.32 6 9 C5.113125 8.855625 4.22625 8.71125 3.3125 8.5625 C-2.42593581 7.73256094 -8.21954276 7.40854359 -14 7 C-14 6.34 -14 5.68 -14 5 C-12.61217515 4.1533966 -11.21430603 3.32324661 -9.8125 2.5 C-9.03519531 2.0359375 -8.25789063 1.571875 -7.45703125 1.09375 C-4.65305032 -0.15444501 -3.03244841 -0.46653052 0 0 Z " fill="#B9140E" transform="translate(48,44)"/>
<path d="M0 0 C1.09570312 0.00902344 2.19140625 0.01804687 3.3203125 0.02734375 C4.16335937 0.03894531 5.00640625 0.05054687 5.875 0.0625 C6.535 3.0325 7.195 6.0025 7.875 9.0625 C4.875 9.0625 4.875 9.0625 1.875 7.0625 C-0.51177076 6.76797416 -2.91126094 6.5696783 -5.3125 6.4375 C-7.22095703 6.32535156 -7.22095703 6.32535156 -9.16796875 6.2109375 C-10.14378906 6.16195312 -11.11960937 6.11296875 -12.125 6.0625 C-8.07054598 0.79170977 -6.62539843 -0.07048296 0 0 Z " fill="#AF1307" transform="translate(36.125,30.9375)"/>
<path d="M0 0 C2.1875 1.75 2.1875 1.75 3.1875 3.75 C1.58839132 4.75806851 -0.01698262 5.75620385 -1.625 6.75 C-2.96498047 7.5853125 -2.96498047 7.5853125 -4.33203125 8.4375 C-6.8125 9.75 -6.8125 9.75 -9.8125 9.75 C-9.4825 6.78 -9.1525 3.81 -8.8125 0.75 C-3.54719388 -1.57653061 -3.54719388 -1.57653061 0 0 Z " fill="#B4180A" transform="translate(48.8125,11.25)"/>
<path d="M0 0 C3.16115776 1.36983503 3.9927092 1.9890638 6 5 C6.1953125 8.13671875 6.1953125 8.13671875 6.125 11.6875 C6.10695313 12.86699219 6.08890625 14.04648437 6.0703125 15.26171875 C6.03550781 16.61716797 6.03550781 16.61716797 6 18 C5.67 17.01 5.34 16.02 5 15 C4.175 14.690625 3.35 14.38125 2.5 14.0625 C0 13 0 13 -0.875 11.125 C-1.01024358 8.82585919 -0.60345922 7.21268381 0 5 C0.03786901 3.33376361 0.04627845 1.66602403 0 0 Z " fill="#861A14" transform="translate(53,3)"/>
<path d="M0 0 C0.33 0.99 0.66 1.98 1 3 C1.66 3 2.32 3 3 3 C3.99 4.485 3.99 4.485 5 6 C9.09394163 6.6513089 10.77420624 6.13380371 14.375 4 C15.24125 3.34 16.1075 2.68 17 2 C17.66 2.33 18.32 2.66 19 3 C18.525625 3.433125 18.05125 3.86625 17.5625 4.3125 C15.76313043 6.02309613 15.76313043 6.02309613 15 9 C10.94681308 10.35106231 7.2374914 10.54209349 3 10 C0.375 8.375 0.375 8.375 -1 6 C-0.75 2.75 -0.75 2.75 0 0 Z " fill="#F9E1D9" transform="translate(8,29)"/>
<path d="M0 0 C1.20272819 2.40545638 1.10071472 3.94996953 1.0625 6.625 C1.05347656 7.44226563 1.04445313 8.25953125 1.03515625 9.1015625 C1.02355469 9.72804688 1.01195312 10.35453125 1 11 C-0.258125 11.103125 -1.51625 11.20625 -2.8125 11.3125 C-5.60499657 11.64858808 -6.74433121 11.80025876 -9 13.5625 C-9.33 14.036875 -9.66 14.51125 -10 15 C-10.66 14.67 -11.32 14.34 -12 14 C-11.38511719 13.40832031 -10.77023438 12.81664062 -10.13671875 12.20703125 C-9.32847656 11.41683594 -8.52023438 10.62664063 -7.6875 9.8125 C-6.88699219 9.03519531 -6.08648437 8.25789063 -5.26171875 7.45703125 C-3.08923692 5.09694305 -1.53869987 2.80352112 0 0 Z " fill="#DD8772" transform="translate(39,16)"/>
<path d="M0 0 C2.4375 0.8125 2.4375 0.8125 4.4375 3.8125 C-0.80635089 5.5604503 -5.03572267 6.00642201 -10.5625 5.8125 C-3.11283557 -0.22776846 -3.11283557 -0.22776846 0 0 Z " fill="#A81306" transform="translate(52.5625,15.1875)"/>
<path d="M0 0 C3.26296197 0.22503186 4.04203745 1.04787598 6.25 3.5625 C6.8275 4.366875 7.405 5.17125 8 6 C7.67 6.33 7.34 6.66 7 7 C3.50265772 6.61140641 0.34211739 6.11403913 -3 5 C-1.125 1.125 -1.125 1.125 0 0 Z " fill="#CD2A20" transform="translate(47,46)"/>
<path d="M0 0 C-0.66 1.32 -1.32 2.64 -2 4 C-8.50381098 4.36814024 -8.50381098 4.36814024 -10.9375 2.5625 C-12 1 -12 1 -12 0 C-10.56359829 -0.19573608 -9.12580496 -0.38127816 -7.6875 -0.5625 C-6.88699219 -0.66691406 -6.08648437 -0.77132812 -5.26171875 -0.87890625 C-3 -1 -3 -1 0 0 Z " fill="#E16347" transform="translate(23,39)"/>
<path d="M0 0 C1.875 1.375 1.875 1.375 3 3 C3 3.66 3 4.32 3 5 C-0.63 4.67 -4.26 4.34 -8 4 C-8.33 3.01 -8.66 2.02 -9 1 C-5.72429875 -0.09190042 -3.43202271 -0.28600189 0 0 Z " fill="#C52612" transform="translate(38,4)"/>
<path d="M0 0 C1.32 0 2.64 0 4 0 C4.12375 0.969375 4.2475 1.93875 4.375 2.9375 C4.58125 3.948125 4.7875 4.95875 5 6 C5.66 6.33 6.32 6.66 7 7 C5.00045254 7.04254356 2.99958364 7.04080783 1 7 C0 6 0 6 -0.0625 2.9375 C-0.041875 1.968125 -0.02125 0.99875 0 0 Z " fill="#AA100D" transform="translate(15,47)"/>
<path d="M0 0 C2.1875 1.75 2.1875 1.75 3.1875 3.75 C-0.4425 3.42 -4.0725 3.09 -7.8125 2.75 C-7.8125 3.41 -7.8125 4.07 -7.8125 4.75 C-8.4725 4.42 -9.1325 4.09 -9.8125 3.75 C-9.4825 2.76 -9.1525 1.77 -8.8125 0.75 C-5.24932995 -1.03158502 -3.70786376 -1.64793945 0 0 Z " fill="#D04F3C" transform="translate(48.8125,11.25)"/>
<path d="M0 0 C2.97 0.33 5.94 0.66 9 1 C8.67 2.98 8.34 4.96 8 7 C7.67 6.34 7.34 5.68 7 5 C5.35 5 3.7 5 2 5 C1.34 3.35 0.68 1.7 0 0 Z " fill="#CC2C1D" transform="translate(12,42)"/>
<path d="M0 0 C1.37562854 1.28965176 2.70766393 2.62689293 4 4 C4 4.66 4 5.32 4 6 C4.66 6 5.32 6 6 6 C6.33 6.66 6.66 7.32 7 8 C7.99 8.66 8.98 9.32 10 10 C8.02 10 6.04 10 4 10 C3.34 8.68 2.68 7.36 2 6 C1.34 6 0.68 6 0 6 C0 4.02 0 2.04 0 0 Z " fill="#BD4134" transform="translate(9,26)"/>
<path d="M0 0 C0.66 0 1.32 0 2 0 C2 4.62 2 9.24 2 14 C-0.57143865 11.42856135 -0.40333707 10.01049945 -0.6875 6.4375 C-0.77386719 5.44621094 -0.86023437 4.45492187 -0.94921875 3.43359375 C-0.96597656 2.63050781 -0.98273437 1.82742187 -1 1 C-0.67 0.67 -0.34 0.34 0 0 Z " fill="#B3211C" transform="translate(55,35)"/>
<path d="M0 0 C1.32 0 2.64 0 4 0 C4.12375 0.804375 4.2475 1.60875 4.375 2.4375 C4.684375 3.7059375 4.684375 3.7059375 5 5 C5.66 5.33 6.32 5.66 7 6 C7 6.66 7 7.32 7 8 C5.35 8.33 3.7 8.66 2 9 C1.87625 7.865625 1.7525 6.73125 1.625 5.5625 C1.41875 4.386875 1.2125 3.21125 1 2 C0.34 1.67 -0.32 1.34 -1 1 C-0.67 0.67 -0.34 0.34 0 0 Z " fill="#ECB7AD" transform="translate(39,3)"/>
<path d="M0 0 C0.66 0.33 1.32 0.66 2 1 C0.59148053 2.32123942 -0.82715741 3.63169769 -2.25 4.9375 C-3.03890625 5.66839844 -3.8278125 6.39929688 -4.640625 7.15234375 C-6.89044414 8.91420543 -8.21628554 9.59776603 -11 10 C-7.65996398 5.67760044 -4.67248931 2.82522609 0 0 Z " fill="#AA281D" transform="translate(27,6)"/>
<path d="M0 0 C0.66 0.33 1.32 0.66 2 1 C2.625 3.0625 2.625 3.0625 3 5 C5.97 5.495 5.97 5.495 9 6 C9 6.33 9 6.66 9 7 C0.42857143 7.28571429 0.42857143 7.28571429 -3 5 C-2.34 4.67 -1.68 4.34 -1 4 C-1.33 3.01 -1.66 2.02 -2 1 C-1.34 0.67 -0.68 0.34 0 0 Z " fill="#93251F" transform="translate(13,48)"/>
<path d="M0 0 C1.76462683 3.08809695 2 4.23312136 2 8 C0.68 7.67 -0.64 7.34 -2 7 C-2.33 5.02 -2.66 3.04 -3 1 C-2.01 0.67 -1.02 0.34 0 0 Z " fill="#981611" transform="translate(10,44)"/>
<path d="M0 0 C0.99 0.33 1.98 0.66 3 1 C4.1875 4.0625 4.1875 4.0625 5 7 C4.01 7 3.02 7 2 7 C1.34 7.66 0.68 8.32 0 9 C0 6.03 0 3.06 0 0 Z " fill="#B82E22" transform="translate(7,35)"/>
<path d="M0 0 C0.66 0.33 1.32 0.66 2 1 C1.2884375 1.6496875 1.2884375 1.6496875 0.5625 2.3125 C-1.23686957 4.02309613 -1.23686957 4.02309613 -2 7 C-4.88211302 7.96070434 -6.69850044 8.10581883 -9.6875 8.0625 C-10.89986328 8.04896484 -10.89986328 8.04896484 -12.13671875 8.03515625 C-13.05904297 8.01775391 -13.05904297 8.01775391 -14 8 C-14 7.67 -14 7.34 -14 7 C-10.7 6.34 -7.4 5.68 -4 5 C-4.33 4.34 -4.66 3.68 -5 3 C-2.625 1.4375 -2.625 1.4375 0 0 Z " fill="#EDBDB2" transform="translate(25,31)"/>
<path d="M0 0 C0.66 0.33 1.32 0.66 2 1 C1.67 1.598125 1.34 2.19625 1 2.8125 C-0.20787988 5.05386471 -0.20787988 5.05386471 0 8 C-0.66 8 -1.32 8 -2 8 C-2 8.66 -2 9.32 -2 10 C-2.66 10 -3.32 10 -4 10 C-3.5205537 5.78087253 -2.83374881 3.20336822 0 0 Z " fill="#8D180D" transform="translate(14,18)"/>
<path d="M0 0 C-2.17424117 2.50037734 -3.73045798 3.43628586 -7 4 C-7.66 2.68 -8.32 1.36 -9 0 C-5.67465243 -1.10844919 -3.37817425 -0.84454356 0 0 Z " fill="#891107" transform="translate(25,31)"/>
<path d="M0 0 C1.53445094 3.06890187 0.54984289 5.70094266 0 9 C-1.65 9 -3.3 9 -5 9 C-3.50163895 5.88801935 -1.80066242 2.9465385 0 0 Z " fill="#F2D3C6" transform="translate(39,16)"/>
<path d="M0 0 C2.64 0 5.28 0 8 0 C8 0.66 8 1.32 8 2 C6.824375 2.433125 6.824375 2.433125 5.625 2.875 C2.90328368 3.84912254 2.90328368 3.84912254 1 6 C0 5 0 5 -0.0625 2.4375 C-0.041875 1.633125 -0.02125 0.82875 0 0 Z " fill="#B3251D" transform="translate(43,3)"/>
<path d="M0 0 C1.65 0 3.3 0 5 0 C5 0.66 5 1.32 5 2 C2.625 3.6875 2.625 3.6875 0 5 C-0.66 4.67 -1.32 4.34 -2 4 C-1.34 2.68 -0.68 1.36 0 0 Z " fill="#BB2313" transform="translate(41,14)"/>
<path d="M0 0 C0.33 0.99 0.66 1.98 1 3 C1.66 3 2.32 3 3 3 C3.66 4.32 4.32 5.64 5 7 C2.03 6.505 2.03 6.505 -1 6 C-0.67 4.02 -0.34 2.04 0 0 Z " fill="#E3A499" transform="translate(8,29)"/>
<path d="M0 0 C0.66 0.33 1.32 0.66 2 1 C0.02 5.455 0.02 5.455 -2 10 C-2.66 9.01 -3.32 8.02 -4 7 C-3.525625 6.21625 -3.05125 5.4325 -2.5625 4.625 C-1.66101977 3.11051322 -0.78820515 1.5764103 0 0 Z " fill="#B12616" transform="translate(39,11)"/>
</svg>
